<mxfile host="app.diagrams.net" modified="2024-04-07T20:19:46.191Z" agent="Mozilla/5.0 (Windows NT 10.0; Win64; x64) AppleWebKit/537.36 (KHTML, like Gecko) Chrome/123.0.0.0 Safari/537.36" etag="lWpLaHUBhtkZGG5RoCDU" version="24.2.2" type="device">
  <diagram name="Page-1" id="S2wGsCiQ4na6JfohJTM-">
    <mxGraphModel dx="2284" dy="1838" grid="1" gridSize="10" guides="1" tooltips="1" connect="1" arrows="1" fold="1" page="1" pageScale="1" pageWidth="850" pageHeight="1100" math="0" shadow="0">
      <root>
        <mxCell id="0" />
        <mxCell id="1" parent="0" />
        <mxCell id="b_ReNB8lhK830uBXShkG-2" value="" style="rounded=0;whiteSpace=wrap;html=1;" parent="1" vertex="1">
          <mxGeometry x="120" y="120" width="360" height="360" as="geometry" />
        </mxCell>
        <mxCell id="b_ReNB8lhK830uBXShkG-3" value="" style="rounded=0;whiteSpace=wrap;html=1;" parent="1" vertex="1">
          <mxGeometry x="155" y="170" width="290" height="220" as="geometry" />
        </mxCell>
        <mxCell id="b_ReNB8lhK830uBXShkG-4" value="&lt;font style=&quot;font-size: 18px;&quot;&gt;Terminal text&lt;/font&gt;" style="text;html=1;align=left;verticalAlign=middle;whiteSpace=wrap;rounded=0;" parent="1" vertex="1">
          <mxGeometry x="160" y="180" width="170" height="30" as="geometry" />
        </mxCell>
        <mxCell id="b_ReNB8lhK830uBXShkG-5" value="&lt;font style=&quot;font-size: 18px;&quot;&gt;Some more Terminal text&lt;/font&gt;" style="text;html=1;align=left;verticalAlign=middle;whiteSpace=wrap;rounded=0;" parent="1" vertex="1">
          <mxGeometry x="160" y="210" width="260" height="30" as="geometry" />
        </mxCell>
        <mxCell id="b_ReNB8lhK830uBXShkG-7" value="" style="html=1;verticalLabelPosition=bottom;labelBackgroundColor=#ffffff;verticalAlign=top;shadow=0;dashed=0;strokeWidth=2;shape=mxgraph.ios7.misc.scroll_(vertical);fillColor=#a0a0a0;" parent="1" vertex="1">
          <mxGeometry x="425" y="180" width="6" height="190" as="geometry" />
        </mxCell>
        <mxCell id="b_ReNB8lhK830uBXShkG-10" value="Run Training&amp;nbsp;" style="rounded=0;whiteSpace=wrap;html=1;" parent="1" vertex="1">
          <mxGeometry x="240" y="430" width="120" height="30" as="geometry" />
        </mxCell>
        <mxCell id="b_ReNB8lhK830uBXShkG-12" style="edgeStyle=orthogonalEdgeStyle;rounded=0;orthogonalLoop=1;jettySize=auto;html=1;strokeWidth=2;" parent="1" source="b_ReNB8lhK830uBXShkG-11" edge="1">
          <mxGeometry relative="1" as="geometry">
            <mxPoint x="440" y="265" as="targetPoint" />
          </mxGeometry>
        </mxCell>
        <mxCell id="b_ReNB8lhK830uBXShkG-11" value="&lt;font style=&quot;font-size: 15px;&quot;&gt;Scroll bar, to scroll through terminal&amp;nbsp;&lt;/font&gt;" style="text;html=1;align=center;verticalAlign=middle;whiteSpace=wrap;rounded=0;" parent="1" vertex="1">
          <mxGeometry x="590" y="250" width="140" height="30" as="geometry" />
        </mxCell>
        <mxCell id="b_ReNB8lhK830uBXShkG-14" style="edgeStyle=orthogonalEdgeStyle;rounded=0;orthogonalLoop=1;jettySize=auto;html=1;strokeColor=default;strokeWidth=2;align=center;verticalAlign=middle;fontFamily=Helvetica;fontSize=11;fontColor=default;labelBackgroundColor=default;endArrow=classic;" parent="1" source="b_ReNB8lhK830uBXShkG-13" edge="1">
          <mxGeometry relative="1" as="geometry">
            <mxPoint x="299" y="458" as="targetPoint" />
          </mxGeometry>
        </mxCell>
        <mxCell id="b_ReNB8lhK830uBXShkG-13" value="&lt;span style=&quot;font-size: 15px;&quot;&gt;button to run the training program&lt;/span&gt;" style="text;html=1;align=center;verticalAlign=middle;whiteSpace=wrap;rounded=0;" parent="1" vertex="1">
          <mxGeometry x="230" y="510" width="140" height="30" as="geometry" />
        </mxCell>
        <mxCell id="b_ReNB8lhK830uBXShkG-16" style="edgeStyle=orthogonalEdgeStyle;rounded=0;orthogonalLoop=1;jettySize=auto;html=1;strokeColor=default;strokeWidth=2;align=center;verticalAlign=middle;fontFamily=Helvetica;fontSize=11;fontColor=default;labelBackgroundColor=default;endArrow=classic;" parent="1" source="b_ReNB8lhK830uBXShkG-15" edge="1">
          <mxGeometry relative="1" as="geometry">
            <mxPoint x="179" y="295" as="targetPoint" />
          </mxGeometry>
        </mxCell>
        <mxCell id="b_ReNB8lhK830uBXShkG-15" value="&lt;span style=&quot;font-size: 15px;&quot;&gt;&amp;nbsp;Terminal to store text from other scrips&lt;/span&gt;" style="text;html=1;align=center;verticalAlign=middle;whiteSpace=wrap;rounded=0;" parent="1" vertex="1">
          <mxGeometry x="-60" y="280" width="140" height="30" as="geometry" />
        </mxCell>
        <mxCell id="b_ReNB8lhK830uBXShkG-18" style="edgeStyle=orthogonalEdgeStyle;rounded=0;orthogonalLoop=1;jettySize=auto;html=1;strokeColor=default;strokeWidth=2;align=center;verticalAlign=middle;fontFamily=Helvetica;fontSize=11;fontColor=default;labelBackgroundColor=default;endArrow=classic;" parent="1" source="b_ReNB8lhK830uBXShkG-17" edge="1">
          <mxGeometry relative="1" as="geometry">
            <mxPoint x="189" y="183" as="targetPoint" />
          </mxGeometry>
        </mxCell>
        <mxCell id="b_ReNB8lhK830uBXShkG-17" value="&lt;span style=&quot;font-size: 15px;&quot;&gt;Text form other scripts the UI uses&lt;/span&gt;" style="text;html=1;align=center;verticalAlign=middle;whiteSpace=wrap;rounded=0;" parent="1" vertex="1">
          <mxGeometry x="120" y="50" width="140" height="30" as="geometry" />
        </mxCell>
        <mxCell id="O6eUZaDsO9PNIvwp9xK2-4" value="&lt;font style=&quot;font-size: 20px;&quot;&gt;&lt;b style=&quot;&quot;&gt;Training app&amp;nbsp;&lt;/b&gt;&lt;/font&gt;" style="text;html=1;align=center;verticalAlign=middle;whiteSpace=wrap;rounded=0;" vertex="1" parent="1">
          <mxGeometry x="220" y="-20" width="160" height="30" as="geometry" />
        </mxCell>
      </root>
    </mxGraphModel>
  </diagram>
</mxfile>
